<svg viewBox="215 38 250 250" role="img" xmlns="http://www.w3.org/2000/svg">
<title>Green Code logo</title>
<defs>
  <clipPath id="circle-clip">
    <circle cx="340" cy="160" r="110"/>
  </clipPath>
</defs>

<!-- Hexagon grid background inside circle -->
<g clip-path="url(#circle-clip)">
  <polygon points="340,50 366,65 366,95 340,110 314,95 314,65" style="fill:rgb(15, 42, 15);stroke:rgb(26, 74, 26);stroke-width:1px;"/>
  <polygon points="392,80 418,95 418,125 392,140 366,125 366,95" style="fill:rgb(15, 42, 15);stroke:rgb(26, 74, 26);stroke-width:1px;"/>
  <polygon points="288,80 314,95 314,125 288,140 262,125 262,95" style="fill:rgb(15, 42, 15);stroke:rgb(26, 74, 26);stroke-width:1px;"/>
  <polygon points="340,110 366,125 366,155 340,170 314,155 314,125" style="fill:rgb(15, 42, 15);stroke:rgb(26, 74, 26);stroke-width:1px;"/>
  <polygon points="392,140 418,155 418,185 392,200 366,185 366,155" style="fill:rgba(0, 232, 135, 0.063);stroke:rgba(0, 232, 135, 0.25);stroke-width:1px;"/>
  <polygon points="288,140 314,155 314,185 288,200 262,185 262,155" style="fill:rgba(0, 232, 135, 0.063);stroke:rgba(0, 232, 135, 0.25);stroke-width:1px;"/>
  <polygon points="340,170 366,185 366,215 340,230 314,215 314,185" style="fill:rgb(15, 42, 15);stroke:rgb(26, 74, 26);stroke-width:1px;"/>
  <polygon points="444,110 470,125 470,155 444,170 418,155 418,125" style="fill:rgb(15, 42, 15);stroke:rgb(26, 74, 26);stroke-width:1px;"/>
  <polygon points="236,110 262,125 262,155 236,170 210,155 210,125" style="fill:rgb(15, 42, 15);stroke:rgb(26, 74, 26);stroke-width:1px;"/>
  <polygon points="444,170 470,185 470,215 444,230 418,215 418,185" style="fill:rgb(15, 42, 15);stroke:rgb(26, 74, 26);stroke-width:1px;"/>
  <polygon points="236,170 262,185 262,215 236,230 210,215 210,185" style="fill:rgb(15, 42, 15);stroke:rgb(26, 74, 26);stroke-width:1px;"/>
</g>

<!-- Outer decorative ring -->
<circle cx="340" cy="160" r="110" fill="none" stroke="rgb(0, 232, 135)" stroke-width="2.5"/>
<circle cx="340" cy="160" r="103" fill="none" stroke="rgb(26, 74, 26)" stroke-width="1"/>

<!-- Tick marks on ring -->
<g stroke="#00e887" stroke-width="2" stroke-linecap="round">
  <line x1="340" y1="50" x2="340" y2="42"/>
  <line x1="340" y1="270" x2="340" y2="278"/>
  <line x1="230" y1="160" x2="222" y2="160"/>
  <line x1="450" y1="160" x2="458" y2="160"/>
  <line x1="262" y1="82" x2="257" y2="74"/>
  <line x1="418" y1="82" x2="423" y2="74"/>
  <line x1="262" y1="238" x2="257" y2="246"/>
  <line x1="418" y1="238" x2="423" y2="246"/>
</g>

<!-- Leaf shape -->
<path d="M340 95 C370 95 400 115 405 148 C410 175 395 205 370 218 C358 224 348 226 340 225 C332 226 322 224 310 218 C285 205 270 175 275 148 C280 115 310 95 340 95 Z" fill="rgb(0, 232, 135)"/>

<!-- Leaf vein / midrib -->
<path d="M340 95 C340 130 340 175 340 225" fill="none" stroke="#007a44" stroke-width="2.5" stroke-linecap="round"/>

<!-- Leaf secondary veins -->
<path fill="none" stroke="#007a44" stroke-width="1.5" stroke-linecap="round" d="M340 130 C355 125 368 128 378 138"/>
<path fill="none" stroke="#007a44" stroke-width="1.5" stroke-linecap="round" d="M340 130 C325 125 312 128 302 138"/>
<path fill="none" stroke="#007a44" stroke-width="1.5" stroke-linecap="round" d="M340 155 C358 148 374 152 385 162"/>
<path fill="none" stroke="#007a44" stroke-width="1.5" stroke-linecap="round" d="M340 155 C322 148 306 152 295 162"/>
<path fill="none" stroke="#007a44" stroke-width="1.5" stroke-linecap="round" d="M340 180 C354 175 366 178 374 186"/>
<path fill="none" stroke="#007a44" stroke-width="1.5" stroke-linecap="round" d="M340 180 C326 175 314 178 306 186"/>

<!-- Code brackets overlaid on leaf -->
<path d="M318 128 L308 142 L308 158 L318 172" fill="none" stroke="rgb(10, 26, 10)" stroke-width="3.5" stroke-linecap="round" stroke-linejoin="round"/>
<path d="M362 128 L372 142 L372 158 L362 172" fill="none" stroke="rgb(10, 26, 10)" stroke-width="3.5" stroke-linecap="round" stroke-linejoin="round"/>

<!-- Slash inside brackets -->
<line x1="346" y1="128" x2="334" y2="172" stroke="#0a1a0a" stroke-width="3" stroke-linecap="round"/>

<!-- Small decorative dots -->
<circle cx="240" cy="160" r="3" fill="rgb(0, 232, 135)"/>
<circle cx="440" cy="160" r="3" fill="rgb(0, 232, 135)"/>
<circle cx="340" cy="60" r="3" fill="rgb(0, 232, 135)"/>
<circle cx="340" cy="260" r="3" fill="rgb(0, 232, 135)"/>
</svg>
